<svg width="200" height="200" viewBox="0 0 200 200" fill="none" xmlns="http://www.w3.org/2000/svg">
<path d="M0 49C0 21.938 21.938 0 49 0H151C178.062 0 200 21.938 200 49V151C200 178.062 178.062 200 151 200H49C21.938 200 0 178.062 0 151V49Z" fill="url(#paint0_linear_110_2)"/>
<mask id="path-2-outside-1_110_2" maskUnits="userSpaceOnUse" x="25.3611" y="26.0698" width="150" height="146" fill="black">
<rect fill="white" x="25.3611" y="26.0698" width="150" height="146"/>
<path d="M114.461 35.3944C106.982 32.9732 89.3896 33.6359 84.9914 39.352C73.5555 39.5704 60.1389 49.9069 58.3803 63.5456C56.6403 77.04 60.5202 83.3078 61.9011 93.4554C63.4634 104.954 69.9274 108.631 75.0956 110.171C82.5295 119.996 90.4299 119.574 103.702 119.574C129.617 119.574 141.96 102.233 143.052 72.7825C143.711 54.9677 133.26 41.4771 114.461 35.3944Z"/>
<path d="M133.319 108.468H66.6806C58.5025 108.468 51.872 115.098 51.872 123.276V164H148.128V123.276C148.128 115.098 141.498 108.468 133.319 108.468Z"/>
<path d="M129.262 74.1634C126.755 70.6908 123.542 67.8956 116.504 66.9072C119.144 68.1178 121.672 72.2938 122.002 74.604C122.331 76.9141 122.661 78.7837 120.573 76.4735C112.202 67.2218 103.087 70.8648 94.0542 65.2153C87.7494 61.2651 85.828 56.8965 85.828 56.8965C85.828 56.8965 85.0579 62.7237 75.4916 68.662C72.7187 70.3835 69.4089 74.2189 67.5727 79.8795C66.2547 83.9482 66.6619 87.5763 66.6619 93.7774C66.6619 111.877 81.5779 127.097 99.9814 127.097C118.385 127.097 133.301 111.744 133.301 93.7774C133.301 82.5192 132.124 78.121 129.262 74.1634Z"/>
<path d="M70.3826 130.681H74.0848V164H70.3826V130.681Z"/>
<path d="M50.7687 128.811L49.721 128.593H47.8292C47.8292 128.378 47.9143 128.178 47.9588 127.967C46.6704 127.171 45.9374 125.653 46.2632 124.087C46.6778 122.08 48.6437 120.792 50.6539 121.203L58.3952 122.806H64.6C67.7949 122.806 70.3827 125.398 70.3827 128.596V134.383H56.5108C56.5108 134.383 51.0279 131.906 50.7687 128.811Z"/>
<path d="M33.3611 125.701C33.3611 124.102 34.6568 122.806 36.2525 122.806L53.6156 125.701H67.4876C69.0869 125.701 70.379 127.001 70.379 128.593V134.383H51.8719L36.2525 128.596C36.2525 128.596 33.3611 127.301 33.3611 125.701Z"/>
<path d="M48.1697 164L70.3826 164L70.3827 134.383L51.8719 134.383L48.1697 164Z"/>
<path d="M125.915 130.681H129.617V164H125.915V130.681Z"/>
<path d="M149.231 128.811L150.279 128.593H152.171C152.171 128.378 152.086 128.178 152.041 127.967C153.329 127.171 154.063 125.653 153.737 124.087C153.322 122.08 151.36 120.792 149.35 121.203L141.608 122.806H135.404C132.209 122.806 129.621 125.398 129.621 128.596V134.383H143.493C143.489 134.383 148.972 131.906 149.231 128.811Z"/>
<path d="M166.639 125.701C166.639 124.102 165.343 122.806 163.748 122.806L146.381 125.701H132.509C130.909 125.701 129.617 127.001 129.617 128.593V134.383H148.128L163.748 128.596C163.748 128.596 166.639 127.301 166.639 125.701Z"/>
<path d="M151.83 164L129.617 164L129.617 134.383H148.128L151.83 164Z"/>
<path d="M103.702 102.914H96.2978C95.276 102.914 94.4467 102.085 94.4467 101.063C94.4467 100.042 95.276 99.2122 96.2978 99.2122H103.702C104.724 99.2122 105.553 100.042 105.553 101.063C105.553 102.085 104.724 102.914 103.702 102.914ZM109.255 115.872H107.404C106.382 115.872 105.553 115.043 105.553 114.021C105.553 112.999 106.382 112.17 107.404 112.17H109.255C110.277 112.17 111.106 112.999 111.106 114.021C111.106 115.043 110.277 115.872 109.255 115.872Z"/>
<path d="M85.1912 89.9568C83.1477 89.9568 81.4891 88.2982 81.4891 86.2546V82.5525C81.4891 80.5089 83.1477 78.8503 85.1912 78.8503C87.2348 78.8503 88.8934 80.5089 88.8934 82.5525V86.2546C88.8934 88.2982 87.2348 89.9568 85.1912 89.9568ZM114.809 89.9568C112.761 89.9568 111.106 88.2982 111.106 86.2546V82.5525C111.106 80.5089 112.761 78.8503 114.809 78.8503C116.856 78.8503 118.511 80.5089 118.511 82.5525V86.2546C118.511 88.2982 116.856 89.9568 114.809 89.9568Z"/>
</mask>
<path d="M114.461 35.3944C106.982 32.9732 89.3896 33.6359 84.9914 39.352C73.5555 39.5704 60.1389 49.9069 58.3803 63.5456C56.6403 77.04 60.5202 83.3078 61.9011 93.4554C63.4634 104.954 69.9274 108.631 75.0956 110.171C82.5295 119.996 90.4299 119.574 103.702 119.574C129.617 119.574 141.96 102.233 143.052 72.7825C143.711 54.9677 133.26 41.4771 114.461 35.3944Z" fill="#FFAC33"/>
<path d="M133.319 108.468H66.6806C58.5025 108.468 51.872 115.098 51.872 123.276V164H148.128V123.276C148.128 115.098 141.498 108.468 133.319 108.468Z" fill="#FA743E"/>
<path d="M129.262 74.1634C126.755 70.6908 123.542 67.8956 116.504 66.9072C119.144 68.1178 121.672 72.2938 122.002 74.604C122.331 76.9141 122.661 78.7837 120.573 76.4735C112.202 67.2218 103.087 70.8648 94.0542 65.2153C87.7494 61.2651 85.828 56.8965 85.828 56.8965C85.828 56.8965 85.0579 62.7237 75.4916 68.662C72.7187 70.3835 69.4089 74.2189 67.5727 79.8795C66.2547 83.9482 66.6619 87.5763 66.6619 93.7774C66.6619 111.877 81.5779 127.097 99.9814 127.097C118.385 127.097 133.301 111.744 133.301 93.7774C133.301 82.5192 132.124 78.121 129.262 74.1634Z" fill="#FFDC5D"/>
<path d="M70.3826 130.681H74.0848V164H70.3826V130.681Z" fill="#DD551F"/>
<path d="M50.7687 128.811L49.721 128.593H47.8292C47.8292 128.378 47.9143 128.178 47.9588 127.967C46.6704 127.171 45.9374 125.653 46.2632 124.087C46.6778 122.08 48.6437 120.792 50.6539 121.203L58.3952 122.806H64.6C67.7949 122.806 70.3827 125.398 70.3827 128.596V134.383H56.5108C56.5108 134.383 51.0279 131.906 50.7687 128.811Z" fill="#FCAB40"/>
<path d="M33.3611 125.701C33.3611 124.102 34.6568 122.806 36.2525 122.806L53.6156 125.701H67.4876C69.0869 125.701 70.379 127.001 70.379 128.593V134.383H51.8719L36.2525 128.596C36.2525 128.596 33.3611 127.301 33.3611 125.701Z" fill="#FFDC5D"/>
<path d="M48.1697 164L70.3826 164L70.3827 134.383L51.8719 134.383L48.1697 164Z" fill="#FA743E"/>
<path d="M125.915 130.681H129.617V164H125.915V130.681Z" fill="#DD551F"/>
<path d="M149.231 128.811L150.279 128.593H152.171C152.171 128.378 152.086 128.178 152.041 127.967C153.329 127.171 154.063 125.653 153.737 124.087C153.322 122.08 151.36 120.792 149.35 121.203L141.608 122.806H135.404C132.209 122.806 129.621 125.398 129.621 128.596V134.383H143.493C143.489 134.383 148.972 131.906 149.231 128.811Z" fill="#FCAB40"/>
<path d="M166.639 125.701C166.639 124.102 165.343 122.806 163.748 122.806L146.381 125.701H132.509C130.909 125.701 129.617 127.001 129.617 128.593V134.383H148.128L163.748 128.596C163.748 128.596 166.639 127.301 166.639 125.701Z" fill="#FFDC5D"/>
<path d="M151.83 164L129.617 164L129.617 134.383H148.128L151.83 164Z" fill="#FA743E"/>
<path d="M103.702 102.914H96.2978C95.276 102.914 94.4467 102.085 94.4467 101.063C94.4467 100.042 95.276 99.2122 96.2978 99.2122H103.702C104.724 99.2122 105.553 100.042 105.553 101.063C105.553 102.085 104.724 102.914 103.702 102.914ZM109.255 115.872H107.404C106.382 115.872 105.553 115.043 105.553 114.021C105.553 112.999 106.382 112.17 107.404 112.17H109.255C110.277 112.17 111.106 112.999 111.106 114.021C111.106 115.043 110.277 115.872 109.255 115.872Z" fill="#C1694F"/>
<path d="M85.1912 89.9568C83.1477 89.9568 81.4891 88.2982 81.4891 86.2546V82.5525C81.4891 80.5089 83.1477 78.8503 85.1912 78.8503C87.2348 78.8503 88.8934 80.5089 88.8934 82.5525V86.2546C88.8934 88.2982 87.2348 89.9568 85.1912 89.9568ZM114.809 89.9568C112.761 89.9568 111.106 88.2982 111.106 86.2546V82.5525C111.106 80.5089 112.761 78.8503 114.809 78.8503C116.856 78.8503 118.511 80.5089 118.511 82.5525V86.2546C118.511 88.2982 116.856 89.9568 114.809 89.9568Z" fill="#662113"/>
<path d="M129.617 138.383H148.128V130.383H129.617V138.383ZM114.461 35.3944L111.996 43.0054L111.998 43.0059L114.461 35.3944ZM84.9914 39.352L85.1442 47.3506C87.5736 47.3042 89.8501 46.1562 91.3318 44.2305L84.9914 39.352ZM58.3803 63.5456L66.3146 64.5687L66.3146 64.5686L58.3803 63.5456ZM61.9011 93.4554L69.8282 92.3783L69.828 92.3767L61.9011 93.4554ZM75.0956 110.171L81.4753 105.344C80.4475 103.985 79.0128 102.99 77.3802 102.504L75.0956 110.171ZM143.052 72.7825L151.047 73.079L151.047 73.0782L143.052 72.7825ZM51.872 164H43.872C43.872 168.418 47.4537 172 51.872 172V164ZM148.128 164V172C152.546 172 156.128 168.418 156.128 164H148.128ZM129.262 74.1634L122.775 78.8453L122.779 78.8511L129.262 74.1634ZM116.504 66.9072L117.617 58.9849C113.684 58.4326 109.942 60.8485 108.826 64.6597C107.711 68.4708 109.56 72.5234 113.169 74.1789L116.504 66.9072ZM120.573 76.4735L126.508 71.1092L126.505 71.1062L120.573 76.4735ZM94.0542 65.2153L89.8067 71.9946L89.8122 71.998L94.0542 65.2153ZM85.828 56.8965L93.151 53.6757C91.7064 50.3914 88.2519 48.4705 84.6999 48.9765C81.1478 49.4824 78.367 52.2914 77.8969 55.8485L85.828 56.8965ZM75.4916 68.662L71.2724 61.865L71.272 61.8653L75.4916 68.662ZM67.5727 79.8795L59.963 77.411L59.962 77.4142L67.5727 79.8795ZM70.3826 130.681V122.681C65.9643 122.681 62.3826 126.262 62.3826 130.681H70.3826ZM74.0848 130.681H82.0848C82.0848 126.262 78.503 122.681 74.0848 122.681V130.681ZM74.0848 164V172C78.503 172 82.0848 168.418 82.0848 164H74.0848ZM70.3826 164L70.3826 172H70.3826V164ZM50.7687 128.811L58.7408 128.143C58.4454 124.616 55.8668 121.702 52.4014 120.979L50.7687 128.811ZM49.721 128.593L51.3537 120.761C50.8167 120.649 50.2696 120.593 49.721 120.593V128.593ZM47.8292 128.593H39.8292C39.8292 133.011 43.4109 136.593 47.8292 136.593V128.593ZM47.9588 127.967L55.7872 129.615C56.4819 126.315 55.0326 122.934 52.1635 121.161L47.9588 127.967ZM46.2632 124.087L54.0955 125.716L54.0977 125.706L46.2632 124.087ZM50.6539 121.203L52.2761 113.369C52.2695 113.368 52.2628 113.366 52.2562 113.365L50.6539 121.203ZM58.3952 122.806L56.773 130.64C57.3066 130.75 57.8502 130.806 58.3952 130.806V122.806ZM70.3827 134.383L78.3827 134.383V134.383H70.3827ZM56.5108 134.383L53.2174 141.673C54.2524 142.141 55.3751 142.383 56.5108 142.383V134.383ZM36.2525 122.806L37.5682 114.915C37.1334 114.843 36.6933 114.806 36.2525 114.806V122.806ZM53.6156 125.701L52.2999 133.592C52.7347 133.665 53.1748 133.701 53.6156 133.701V125.701ZM70.379 134.383V142.383C74.7973 142.383 78.379 138.801 78.379 134.383H70.379ZM36.2525 128.596L32.9808 135.897C33.1427 135.969 33.307 136.036 33.4733 136.098L36.2525 128.596ZM48.1697 164L40.2314 163.008C39.9468 165.285 40.6536 167.574 42.1722 169.294C43.6908 171.015 45.875 172 48.1696 172L48.1697 164ZM125.915 130.681V122.681C121.497 122.681 117.915 126.262 117.915 130.681H125.915ZM129.617 130.681H137.617C137.617 126.262 134.035 122.681 129.617 122.681V130.681ZM129.617 164V172V164ZM125.915 164H117.915C117.915 168.418 121.497 172 125.915 172V164ZM149.231 128.811L147.598 120.979C144.133 121.702 141.554 124.616 141.259 128.143L149.231 128.811ZM150.279 128.593V120.593C149.73 120.593 149.183 120.649 148.646 120.761L150.279 128.593ZM152.171 128.593V136.593C156.589 136.593 160.171 133.011 160.171 128.593H152.171ZM152.041 127.967L147.836 121.161C144.967 122.934 143.518 126.315 144.213 129.615L152.041 127.967ZM153.737 124.087L145.902 125.706L145.904 125.716L153.737 124.087ZM149.35 121.203L147.747 113.365C147.741 113.366 147.734 113.368 147.727 113.369L149.35 121.203ZM141.608 122.806V130.806C142.153 130.806 142.697 130.75 143.231 130.64L141.608 122.806ZM129.621 134.383H121.621C121.621 138.801 125.203 142.383 129.621 142.383V134.383ZM143.493 142.383C147.911 142.383 151.493 138.801 151.493 134.383C151.493 129.964 147.911 126.383 143.493 126.383V142.383ZM163.748 122.806V114.806C163.307 114.806 162.867 114.843 162.432 114.915L163.748 122.806ZM146.381 125.701V133.701C146.821 133.701 147.261 133.665 147.696 133.592L146.381 125.701ZM129.617 134.383L137.617 134.383V134.383H129.617ZM148.128 134.383L145.349 126.881C141.866 128.171 139.729 131.689 140.19 135.375L148.128 134.383ZM163.748 128.596L166.527 136.098C166.693 136.036 166.857 135.969 167.019 135.897L163.748 128.596ZM151.83 164L151.83 172C154.125 172 156.309 171.015 157.828 169.294C159.346 167.574 160.053 165.285 159.768 163.008L151.83 164ZM116.925 27.7834C111.769 26.1141 104.298 25.721 97.7893 26.36C94.4352 26.6893 90.9308 27.3286 87.7754 28.4244C84.8151 29.4524 81.1506 31.225 78.6511 34.4735L91.3318 44.2305C91.0314 44.621 91.2153 44.1671 93.0243 43.5389C94.6382 42.9785 96.824 42.5317 99.3526 42.2834C104.609 41.7674 109.674 42.2535 111.996 43.0054L116.925 27.7834ZM84.8387 31.3535C76.9139 31.5048 68.9656 35.0669 62.8313 40.3587C56.6414 45.6984 51.6245 53.3821 50.446 62.5226L66.3146 64.5686C66.8946 60.0704 69.4653 55.7665 73.2824 52.4737C77.1551 49.133 81.6331 47.4176 85.1442 47.3506L84.8387 31.3535ZM50.446 62.5225C49.4417 70.3114 50.068 76.1544 51.1327 81.3588C51.6296 83.7881 52.2593 86.2306 52.7419 88.2544C53.2498 90.384 53.6814 92.3825 53.9741 94.5341L69.828 92.3767C69.4304 89.4544 68.8591 86.8641 68.3055 84.5428C67.7266 82.1156 67.2362 80.2452 66.808 78.1522C66.0225 74.3123 65.579 70.2742 66.3146 64.5687L50.446 62.5225ZM53.9739 94.5324C54.9482 101.703 57.5781 107.149 61.3867 111.1C65.128 114.981 69.4463 116.835 72.8109 117.837L77.3802 102.504C75.5767 101.966 74.0789 101.212 72.9055 99.9952C71.7995 98.8479 70.4163 96.7064 69.8282 92.3783L53.9739 94.5324ZM68.7158 114.997C73.4685 121.279 78.8393 124.736 85.2983 126.325C91.0413 127.738 97.5427 127.574 103.702 127.574V111.574C96.5893 111.574 92.5045 111.621 89.1207 110.789C86.453 110.132 84.1566 108.888 81.4753 105.344L68.7158 114.997ZM103.702 127.574C118.617 127.574 130.666 122.476 138.914 112.243C146.892 102.345 150.468 88.6789 151.047 73.079L135.058 72.486C134.544 86.3368 131.403 96.0662 126.457 102.202C121.783 108.001 114.702 111.574 103.702 111.574V127.574ZM151.047 73.0782C151.44 62.4507 148.498 52.7645 142.4 44.8186C136.347 36.931 127.548 31.2206 116.923 27.7829L111.998 43.0059C120.173 45.6509 125.999 49.7271 129.707 54.5592C133.37 59.333 135.324 65.2995 135.058 72.4868L151.047 73.0782ZM133.319 100.468H66.6806V116.468H133.319V100.468ZM66.6806 100.468C54.0842 100.468 43.872 110.68 43.872 123.276H59.872C59.872 119.516 62.9208 116.468 66.6806 116.468V100.468ZM43.872 123.276V164H59.872V123.276H43.872ZM51.872 172H148.128V156H51.872V172ZM156.128 164V123.276H140.128V164H156.128ZM156.128 123.276C156.128 110.68 145.916 100.468 133.319 100.468V116.468C137.079 116.468 140.128 119.516 140.128 123.276H156.128ZM135.749 69.4815C134.123 67.2292 131.987 64.8117 128.843 62.833C125.708 60.8596 122.019 59.6032 117.617 58.9849L115.391 74.8294C118.027 75.1996 119.464 75.835 120.321 76.3745C121.17 76.9085 121.894 77.625 122.775 78.8453L135.749 69.4815ZM113.169 74.1789C112.746 73.9849 112.657 73.8401 112.847 74.0247C113.006 74.1799 113.24 74.4507 113.492 74.8237C113.741 75.1926 113.935 75.5525 114.057 75.8281C114.115 75.9615 114.141 76.0379 114.145 76.0523C114.153 76.0768 114.115 75.965 114.082 75.7335L129.922 73.4744C129.52 70.6556 128.107 67.8742 126.747 65.8628C125.406 63.8791 123.103 61.1324 119.839 59.6355L113.169 74.1789ZM114.082 75.7335C114.181 76.4295 114.226 76.7312 114.248 76.9609C114.257 77.0563 114.244 76.965 114.245 76.7622C114.246 76.6481 114.246 75.9426 114.519 75.0144C114.76 74.1932 115.667 71.7037 118.532 70.3111C121.477 68.8798 124.065 69.7705 124.949 70.16C125.889 70.5742 126.436 71.062 126.498 71.1157C126.632 71.2326 126.644 71.2599 126.508 71.1092L114.638 81.8379C115.113 82.364 116.498 83.9208 118.498 84.8018C119.639 85.3048 122.428 86.2075 125.526 84.7015C128.545 83.2342 129.559 80.5832 129.869 79.5283C130.434 77.6081 130.205 75.7456 130.174 75.4302C130.107 74.7318 129.987 73.9335 129.922 73.4744L114.082 75.7335ZM126.505 71.1062C120.703 64.693 114.433 62.7813 109.234 61.6702C103.886 60.5274 101.284 60.3009 98.2962 58.4325L89.8122 71.998C95.8581 75.7792 102.329 76.5559 105.89 77.3169C109.6 78.1097 112.072 79.0023 114.64 81.8409L126.505 71.1062ZM98.3017 58.436C95.9783 56.9803 94.5825 55.5256 93.8243 54.5777C93.4419 54.0996 93.2155 53.7424 93.1131 53.5692C93.0619 53.4827 93.0421 53.4428 93.0496 53.4575C93.0534 53.4649 93.064 53.486 93.0811 53.522C93.0896 53.54 93.0997 53.5617 93.1114 53.5873C93.1172 53.6001 93.1235 53.6138 93.1301 53.6285C93.1334 53.6359 93.1367 53.6435 93.1402 53.6514C93.142 53.6553 93.1437 53.6593 93.1455 53.6633C93.1464 53.6653 93.1478 53.6684 93.1482 53.6694C93.1496 53.6725 93.151 53.6757 85.828 56.8965C78.505 60.1174 78.5064 60.1205 78.5078 60.1237C78.5083 60.1248 78.5097 60.128 78.5106 60.1301C78.5125 60.1345 78.5145 60.1388 78.5165 60.1433C78.5204 60.1522 78.5245 60.1614 78.5288 60.1709C78.5373 60.1898 78.5463 60.2099 78.556 60.2311C78.5753 60.2734 78.597 60.3201 78.6211 60.3711C78.6694 60.473 78.7275 60.5919 78.7961 60.7264C78.9333 60.9955 79.1129 61.3277 79.3404 61.7125C79.7953 62.4818 80.4433 63.4637 81.3293 64.5715C83.108 66.7953 85.8254 69.5001 89.8067 71.9946L98.3017 58.436ZM85.828 56.8965C77.8969 55.8485 77.8977 55.8427 77.8985 55.837C77.8987 55.8352 77.8995 55.8295 77.9 55.8258C77.901 55.8183 77.902 55.8108 77.903 55.8035C77.905 55.7888 77.9071 55.7745 77.9091 55.7604C77.9131 55.7323 77.9172 55.7055 77.9212 55.6799C77.9292 55.6286 77.937 55.5822 77.9446 55.5406C77.9596 55.4574 77.9733 55.3932 77.984 55.3469C78.0056 55.2542 78.0152 55.2342 77.9999 55.2782C77.9707 55.3624 77.8369 55.7202 77.4825 56.2817C76.7927 57.3744 75.1131 59.4809 71.2724 61.865L79.7107 75.4589C85.4364 71.9048 88.9251 68.1286 91.0119 64.8231C92.0457 63.1855 92.7023 61.7154 93.1165 60.5214C93.3228 59.9264 93.4674 59.4047 93.5684 58.9701C93.6189 58.7529 93.6585 58.5577 93.6895 58.3862C93.705 58.3005 93.7183 58.2207 93.7298 58.147C93.7356 58.1101 93.7409 58.0748 93.7457 58.0411C93.7481 58.0242 93.7505 58.0078 93.7527 57.9917C93.7538 57.9836 93.7549 57.9757 93.7559 57.9678C93.7565 57.9639 93.7573 57.9581 93.7575 57.9561C93.7583 57.9504 93.759 57.9446 85.828 56.8965ZM71.272 61.8653C66.6734 64.7202 62.2974 70.215 59.963 77.411L75.1823 82.3481C76.5205 78.2228 78.7639 76.0467 79.7111 75.4587L71.272 61.8653ZM59.962 77.4142C58.1337 83.0583 58.6619 88.6754 58.6619 93.7774H74.6619C74.6619 86.4772 74.3757 84.8381 75.1833 82.3449L59.962 77.4142ZM58.6619 93.7774C58.6619 116.248 77.1124 135.097 99.9814 135.097V119.097C86.0434 119.097 74.6619 107.506 74.6619 93.7774H58.6619ZM99.9814 135.097C122.871 135.097 141.301 116.094 141.301 93.7774H125.301C125.301 107.394 113.899 119.097 99.9814 119.097V135.097ZM141.301 93.7774C141.301 82.1154 140.143 75.5586 135.744 69.4757L122.779 78.8511C124.104 80.6834 125.301 82.923 125.301 93.7774H141.301ZM70.3826 138.681H74.0848V122.681H70.3826V138.681ZM66.0848 130.681V164H82.0848V130.681H66.0848ZM74.0848 156H70.3826V172H74.0848V156ZM78.3826 164V130.681H62.3826V164H78.3826ZM52.4014 120.979L51.3537 120.761L48.0883 136.424L49.136 136.643L52.4014 120.979ZM49.721 120.593H47.8292V136.593H49.721V120.593ZM55.8292 128.593C55.8292 129.067 55.782 129.462 55.7351 129.745C55.6894 130.019 55.638 130.222 55.6197 130.292C55.6101 130.329 55.6036 130.352 55.6069 130.34C55.6089 130.333 55.6099 130.329 55.6153 130.31C55.6195 130.295 55.6262 130.271 55.6337 130.244C55.6607 130.146 55.7254 129.908 55.7872 129.615L40.1304 126.319C40.1514 126.219 40.1706 126.14 40.1835 126.089C40.1961 126.039 40.2053 126.005 40.2059 126.003C40.2265 125.928 40.1656 126.147 40.1349 126.265C40.053 126.58 39.8292 127.463 39.8292 128.593H55.8292ZM52.1635 121.161C53.5514 122.018 54.4988 123.778 54.0955 125.716L38.4309 122.458C37.3759 127.528 39.7894 132.323 43.754 134.773L52.1635 121.161ZM54.0977 125.706C53.6139 128.047 51.3364 129.508 49.0517 129.041L52.2562 113.365C45.9509 112.076 39.7417 116.114 38.4287 122.468L54.0977 125.706ZM49.0317 129.037L56.773 130.64L60.0174 114.972L52.2761 113.369L49.0317 129.037ZM58.3952 130.806H64.6V114.806H58.3952V130.806ZM64.6 130.806C63.3667 130.806 62.3827 129.806 62.3827 128.596H78.3827C78.3827 120.989 72.2232 114.806 64.6 114.806V130.806ZM62.3827 128.596V134.383H78.3827V128.596H62.3827ZM70.3827 126.383H56.5108V142.383H70.3827V126.383ZM56.5108 134.383C59.8041 127.092 59.8057 127.093 59.8073 127.093C59.8078 127.094 59.8093 127.094 59.8103 127.095C59.8123 127.096 59.8142 127.097 59.816 127.097C59.8197 127.099 59.8231 127.101 59.8262 127.102C59.8323 127.105 59.8373 127.107 59.8411 127.109C59.8488 127.112 59.8519 127.114 59.8508 127.113C59.8485 127.112 59.8298 127.104 59.797 127.087C59.7305 127.055 59.6121 126.995 59.4596 126.913C59.1381 126.739 58.7497 126.508 58.3986 126.256C58.0103 125.978 57.8975 125.837 57.947 125.897C57.9569 125.909 58.6184 126.681 58.7408 128.143L42.7966 129.478C43.0486 132.488 44.4926 134.73 45.6035 136.077C46.7539 137.472 48.0605 138.531 49.0753 139.259C50.1272 140.013 51.1258 140.595 51.8404 140.982C52.206 141.18 52.518 141.338 52.7523 141.453C52.8699 141.511 52.9692 141.558 53.0474 141.595C53.0866 141.613 53.1205 141.629 53.1489 141.642C53.1631 141.649 53.176 141.655 53.1874 141.66C53.1931 141.662 53.1985 141.665 53.2035 141.667C53.206 141.668 53.2084 141.669 53.2107 141.67C53.2119 141.671 53.2135 141.672 53.2141 141.672C53.2158 141.673 53.2174 141.673 56.5108 134.383ZM41.3611 125.701C41.3611 128.513 39.0818 130.806 36.2525 130.806V114.806C30.2319 114.806 25.3611 119.69 25.3611 125.701H41.3611ZM34.9367 130.697L52.2999 133.592L54.9313 117.81L37.5682 114.915L34.9367 130.697ZM53.6156 133.701H67.4876V117.701H53.6156V133.701ZM67.4876 133.701C64.6553 133.701 62.379 131.406 62.379 128.593H78.379C78.379 122.596 73.5186 117.701 67.4876 117.701V133.701ZM62.379 128.593V134.383H78.379V128.593H62.379ZM70.379 126.383H51.8719V142.383H70.379V126.383ZM54.651 126.881L39.0316 121.095L33.4733 136.098L49.0927 141.884L54.651 126.881ZM36.2525 128.596C39.5241 121.296 39.5257 121.297 39.5274 121.297C39.5279 121.298 39.5295 121.298 39.5306 121.299C39.5327 121.3 39.5348 121.301 39.5368 121.302C39.5409 121.303 39.5448 121.305 39.5486 121.307C39.5562 121.31 39.5633 121.314 39.5698 121.316C39.5828 121.322 39.5937 121.327 39.6026 121.332C39.6203 121.34 39.6307 121.345 39.6347 121.347C39.6419 121.35 39.6289 121.344 39.6037 121.331C39.5347 121.293 39.4942 121.266 39.5013 121.271C39.5102 121.277 39.5673 121.319 39.6573 121.401C39.743 121.478 39.9122 121.641 40.113 121.898C40.4479 122.326 41.3611 123.649 41.3611 125.701H25.3611C25.3611 128.553 26.6356 130.638 27.5127 131.759C28.4175 132.915 29.4264 133.729 30.1123 134.226C30.8422 134.755 31.5245 135.151 31.9977 135.407C32.2435 135.54 32.4565 135.647 32.6217 135.728C32.7049 135.769 32.7773 135.803 32.8374 135.831C32.8675 135.845 32.8946 135.858 32.9186 135.869C32.9305 135.874 32.9417 135.879 32.9521 135.884C32.9573 135.886 32.9623 135.888 32.9671 135.891C32.9695 135.892 32.9718 135.893 32.9741 135.894C32.9753 135.894 32.9769 135.895 32.9775 135.895C32.9792 135.896 32.9808 135.897 36.2525 128.596ZM48.1696 172L70.3826 172L70.3826 156L48.1697 156L48.1696 172ZM78.3826 164L78.3827 134.383L62.3827 134.383L62.3826 164L78.3826 164ZM70.3827 126.383L51.8719 126.383L51.8719 142.383L70.3828 142.383L70.3827 126.383ZM43.9337 133.39L40.2314 163.008L56.1079 164.992L59.8101 135.375L43.9337 133.39ZM125.915 138.681H129.617V122.681H125.915V138.681ZM121.617 130.681V164H137.617V130.681H121.617ZM129.617 156H125.915V172H129.617V156ZM133.915 164V130.681H117.915V164H133.915ZM150.864 136.643L151.912 136.424L148.646 120.761L147.598 120.979L150.864 136.643ZM150.279 136.593H152.171V120.593H150.279V136.593ZM160.171 128.593C160.171 127.462 159.947 126.579 159.865 126.265C159.834 126.146 159.773 125.928 159.794 126.003C159.795 126.005 159.804 126.039 159.816 126.089C159.829 126.14 159.849 126.219 159.87 126.319L144.213 129.615C144.274 129.908 144.339 130.146 144.366 130.244C144.374 130.271 144.38 130.295 144.385 130.31C144.39 130.33 144.391 130.333 144.393 130.34C144.396 130.352 144.39 130.329 144.38 130.292C144.362 130.222 144.31 130.019 144.265 129.745C144.218 129.462 144.171 129.067 144.171 128.593H160.171ZM156.246 134.773C160.21 132.323 162.624 127.528 161.569 122.458L145.904 125.716C145.501 123.778 146.448 122.018 147.836 121.161L156.246 134.773ZM161.571 122.468C160.26 116.122 154.061 112.075 147.747 113.365L150.952 129.041C148.659 129.51 146.384 128.039 145.902 125.706L161.571 122.468ZM147.727 113.369L139.986 114.972L143.231 130.64L150.972 129.037L147.727 113.369ZM141.608 114.806H135.404V130.806H141.608V114.806ZM135.404 114.806C127.78 114.806 121.621 120.989 121.621 128.596H137.621C137.621 129.806 136.637 130.806 135.404 130.806V114.806ZM121.621 128.596V134.383H137.621V128.596H121.621ZM129.621 142.383H143.493V126.383H129.621V142.383ZM143.493 126.383C151.131 132.004 147.688 141.195 147.33 141.403C147.232 141.455 147.089 141.529 147.045 141.551C146.979 141.584 146.926 141.608 146.921 141.611C146.905 141.619 146.892 141.624 146.888 141.627C146.882 141.629 146.877 141.632 146.875 141.632C146.872 141.634 146.87 141.635 146.873 141.633C146.875 141.633 146.879 141.631 146.883 141.629C146.903 141.619 146.933 141.606 146.97 141.588C147.043 141.553 147.14 141.507 147.257 141.45C147.489 141.336 147.799 141.178 148.164 140.98C148.877 140.594 149.875 140.012 150.926 139.258C151.94 138.531 153.247 137.472 154.397 136.077C155.507 134.73 156.951 132.488 157.203 129.478L141.259 128.143C141.382 126.681 142.043 125.909 142.053 125.897C142.102 125.838 141.989 125.978 141.601 126.257C141.25 126.509 140.861 126.74 140.539 126.914C140.386 126.997 140.267 127.057 140.199 127.091C140.165 127.107 140.144 127.117 140.138 127.12C140.135 127.121 140.134 127.122 140.133 127.122C140.132 127.123 140.132 127.123 140.13 127.124C140.129 127.124 140.123 127.127 140.118 127.129C140.118 127.13 140.094 127.14 140.066 127.154C140.06 127.156 140.007 127.181 139.942 127.214C139.897 127.237 139.754 127.31 139.656 127.363C139.298 127.571 135.855 136.761 143.493 142.383V126.383ZM174.639 125.701C174.639 119.69 169.768 114.806 163.748 114.806V130.806C160.918 130.806 158.639 128.513 158.639 125.701H174.639ZM162.432 114.915L145.065 117.81L147.696 133.592L165.063 130.697L162.432 114.915ZM146.381 117.701H132.509V133.701H146.381V117.701ZM132.509 117.701C126.478 117.701 121.617 122.596 121.617 128.593H137.617C137.617 131.406 135.341 133.701 132.509 133.701V117.701ZM121.617 128.593V134.383H137.617V128.593H121.617ZM150.907 141.884L166.527 136.098L160.968 121.095L145.349 126.881L150.907 141.884ZM163.748 128.596C167.019 135.897 167.021 135.896 167.022 135.895C167.023 135.895 167.025 135.894 167.026 135.894C167.028 135.893 167.031 135.892 167.033 135.891C167.038 135.888 167.043 135.886 167.048 135.884C167.058 135.879 167.069 135.874 167.081 135.869C167.105 135.858 167.132 135.845 167.163 135.831C167.223 135.803 167.295 135.769 167.378 135.728C167.544 135.647 167.756 135.54 168.002 135.407C168.475 135.151 169.158 134.755 169.888 134.226C170.574 133.729 171.583 132.915 172.487 131.759C173.364 130.638 174.639 128.553 174.639 125.701H158.639C158.639 123.649 159.552 122.326 159.887 121.898C160.088 121.641 160.257 121.478 160.343 121.401C160.433 121.319 160.49 121.277 160.499 121.271C160.506 121.266 160.465 121.293 160.396 121.331C160.371 121.344 160.358 121.35 160.365 121.347C160.369 121.345 160.38 121.34 160.397 121.332C160.406 121.327 160.417 121.322 160.43 121.316C160.437 121.314 160.444 121.31 160.451 121.307C160.455 121.305 160.459 121.303 160.463 121.302C160.465 121.301 160.467 121.3 160.469 121.299C160.47 121.298 160.472 121.298 160.473 121.297C160.474 121.297 160.476 121.296 163.748 128.596ZM151.83 156L129.617 156L129.617 172L151.83 172L151.83 156ZM137.617 164L137.617 134.383L121.617 134.383L121.617 164L137.617 164ZM140.19 135.375L143.892 164.992L159.768 163.008L156.066 133.39L140.19 135.375ZM103.702 94.9144H96.2978V110.914H103.702V94.9144ZM96.2978 94.9144C99.6943 94.9144 102.447 97.6669 102.447 101.063H86.4467C86.4467 106.503 90.8577 110.914 96.2978 110.914V94.9144ZM102.447 101.063C102.447 104.46 99.6943 107.212 96.2978 107.212V91.2122C90.8577 91.2122 86.4467 95.6232 86.4467 101.063H102.447ZM96.2978 107.212H103.702V91.2122H96.2978V107.212ZM103.702 107.212C100.306 107.212 97.5532 104.46 97.5532 101.063H113.553C113.553 95.6232 109.142 91.2122 103.702 91.2122V107.212ZM97.5532 101.063C97.5532 97.6669 100.306 94.9144 103.702 94.9144V110.914C109.142 110.914 113.553 106.503 113.553 101.063H97.5532ZM109.255 107.872H107.404V123.872H109.255V107.872ZM107.404 107.872C110.801 107.872 113.553 110.624 113.553 114.021H97.5532C97.5532 119.461 101.964 123.872 107.404 123.872V107.872ZM113.553 114.021C113.553 117.417 110.801 120.17 107.404 120.17V104.17C101.964 104.17 97.5532 108.581 97.5532 114.021H113.553ZM107.404 120.17H109.255V104.17H107.404V120.17ZM109.255 120.17C105.859 120.17 103.106 117.417 103.106 114.021H119.106C119.106 108.581 114.695 104.17 109.255 104.17V120.17ZM103.106 114.021C103.106 110.624 105.859 107.872 109.255 107.872V123.872C114.695 123.872 119.106 119.461 119.106 114.021H103.106ZM85.1912 81.9568C87.5659 81.9568 89.4891 83.88 89.4891 86.2546H73.4891C73.4891 92.7165 78.7294 97.9568 85.1912 97.9568V81.9568ZM89.4891 86.2546V82.5525H73.4891V86.2546H89.4891ZM89.4891 82.5525C89.4891 84.9272 87.5659 86.8503 85.1912 86.8503V70.8503C78.7294 70.8503 73.4891 76.0906 73.4891 82.5525H89.4891ZM85.1912 86.8503C82.8166 86.8503 80.8934 84.9272 80.8934 82.5525H96.8934C96.8934 76.0906 91.6531 70.8503 85.1912 70.8503V86.8503ZM80.8934 82.5525V86.2546H96.8934V82.5525H80.8934ZM80.8934 86.2546C80.8934 83.88 82.8166 81.9568 85.1912 81.9568V97.9568C91.6531 97.9568 96.8934 92.7165 96.8934 86.2546H80.8934ZM114.809 81.9568C117.185 81.9568 119.106 83.8852 119.106 86.2546H103.106C103.106 92.7113 108.338 97.9568 114.809 97.9568V81.9568ZM119.106 86.2546V82.5525H103.106V86.2546H119.106ZM119.106 82.5525C119.106 84.922 117.185 86.8503 114.809 86.8503V70.8503C108.338 70.8503 103.106 76.0958 103.106 82.5525H119.106ZM114.809 86.8503C112.432 86.8503 110.511 84.9219 110.511 82.5525H126.511C126.511 76.0958 121.279 70.8503 114.809 70.8503V86.8503ZM110.511 82.5525V86.2546H126.511V82.5525H110.511ZM110.511 86.2546C110.511 83.8852 112.432 81.9568 114.809 81.9568V97.9568C121.279 97.9568 126.511 92.7113 126.511 86.2546H110.511Z" fill="white" mask="url(#path-2-outside-1_110_2)"/>
<path d="M114.461 35.3246C106.982 32.9034 89.3898 33.5661 84.9916 39.2822C73.5556 39.5006 60.139 49.8371 58.3805 63.4758C56.6405 76.9702 60.5203 83.2379 61.9012 93.3855C63.4635 104.884 69.9275 108.561 75.0957 110.101C82.5297 119.926 90.4301 119.504 103.702 119.504C129.617 119.504 141.96 102.163 143.053 72.7127C143.712 54.8979 133.26 41.4072 114.461 35.3246Z" fill="#FFAC33"/>
<path d="M133.32 108.398H66.6807C58.5026 108.398 51.8721 115.028 51.8721 123.206V163.93H148.128V123.206C148.128 115.028 141.498 108.398 133.32 108.398Z" fill="#FA743E"/>
<path d="M129.262 74.0936C126.755 70.621 123.542 67.8258 116.504 66.8374C119.144 68.048 121.672 72.224 122.002 74.5341C122.331 76.8443 122.661 78.7139 120.573 76.4037C112.202 67.152 103.087 70.795 94.0542 65.1455C87.7494 61.1953 85.828 56.8267 85.828 56.8267C85.828 56.8267 85.058 62.6539 75.4916 68.5922C72.7187 70.3137 69.409 74.1491 67.5727 79.8097C66.2547 83.8784 66.6619 87.5065 66.6619 93.7076C66.6619 111.807 81.5779 127.027 99.9814 127.027C118.385 127.027 133.301 111.674 133.301 93.7076C133.301 82.4494 132.124 78.0512 129.262 74.0936Z" fill="#FFDC5D"/>
<path d="M70.3826 130.611H74.0847V163.93H70.3826V130.611Z" fill="#DD551F"/>
<path d="M50.7687 128.741L49.721 128.523H47.8292C47.8292 128.308 47.9143 128.108 47.9587 127.897C46.6704 127.101 45.9374 125.583 46.2632 124.017C46.6778 122.011 48.6436 120.722 50.6539 121.133L58.3951 122.736H64.6C67.7949 122.736 70.3827 125.328 70.3827 128.526V134.313H56.5107C56.5107 134.313 51.0278 131.836 50.7687 128.741Z" fill="#FCAB40"/>
<path d="M33.3611 125.631C33.3611 124.032 34.6568 122.736 36.2525 122.736L53.6156 125.631H67.4876C69.0869 125.631 70.379 126.931 70.379 128.523V134.313H51.8719L36.2525 128.526C36.2525 128.526 33.3611 127.231 33.3611 125.631Z" fill="#FFDC5D"/>
<path d="M48.1697 163.93H70.3826V134.313H51.8718L48.1697 163.93Z" fill="#FA743E"/>
<path d="M125.915 130.611H129.617V163.93H125.915V130.611Z" fill="#DD551F"/>
<path d="M149.231 128.741L150.279 128.523H152.171C152.171 128.308 152.086 128.108 152.041 127.897C153.329 127.101 154.063 125.583 153.737 124.017C153.322 122.011 151.36 120.722 149.35 121.133L141.608 122.736H135.404C132.209 122.736 129.621 125.328 129.621 128.526V134.313H143.493C143.489 134.313 148.972 131.836 149.231 128.741Z" fill="#FCAB40"/>
<path d="M166.639 125.631C166.639 124.032 165.343 122.736 163.748 122.736L146.381 125.631H132.509C130.909 125.631 129.617 126.931 129.617 128.523V134.313H148.128L163.748 128.526C163.748 128.526 166.639 127.231 166.639 125.631Z" fill="#FFDC5D"/>
<path d="M151.83 163.93H129.617V134.313H148.128L151.83 163.93Z" fill="#FA743E"/>
<path d="M103.702 102.845H96.2979C95.2761 102.845 94.4468 102.015 94.4468 100.993C94.4468 99.9717 95.2761 99.1424 96.2979 99.1424H103.702C104.724 99.1424 105.553 99.9717 105.553 100.993C105.553 102.015 104.724 102.845 103.702 102.845ZM109.255 115.802H107.404C106.383 115.802 105.553 114.973 105.553 113.951C105.553 112.929 106.383 112.1 107.404 112.1H109.255C110.277 112.1 111.106 112.929 111.106 113.951C111.106 114.973 110.277 115.802 109.255 115.802Z" fill="#C1694F"/>
<path d="M85.1914 89.887C83.1478 89.887 81.4893 88.2284 81.4893 86.1848V82.4827C81.4893 80.4391 83.1478 78.7805 85.1914 78.7805C87.235 78.7805 88.8936 80.4391 88.8936 82.4827V86.1848C88.8936 88.2284 87.235 89.887 85.1914 89.887ZM114.809 89.887C112.761 89.887 111.107 88.2284 111.107 86.1848V82.4827C111.107 80.4391 112.761 78.7805 114.809 78.7805C116.856 78.7805 118.511 80.4391 118.511 82.4827V86.1848C118.511 88.2284 116.856 89.887 114.809 89.887Z" fill="#662113"/>
<defs>
<linearGradient id="paint0_linear_110_2" x1="5" y1="9.5" x2="200" y2="200" gradientUnits="userSpaceOnUse">
<stop stop-color="#F54242"/>
<stop offset="0.979167" stop-color="#FCFF6A"/>
</linearGradient>
</defs>
</svg>
