<svg width="213" height="201" viewBox="0 0 213 201" fill="none" xmlns="http://www.w3.org/2000/svg">
<path d="M33.4912 0H156.292C168.623 0 178.62 9.99713 178.62 22.3275V156.292H189.784C202.114 156.292 212.111 166.29 212.111 178.62C212.111 190.95 202.114 200.947 189.784 200.947H55.8187C43.4883 200.947 33.4912 190.95 33.4912 178.62V44.655C21.1609 44.655 11.1637 34.6578 11.1637 22.3275C11.1637 9.99713 21.1609 0 33.4912 0Z" fill="#FFD983"/>
<path d="M44.655 145.129L178.62 145.129L178.62 156.292L55.8188 156.292L44.655 161.874L44.655 145.129Z" fill="#E39F3D"/>
<path d="M22.3275 0C34.6579 0 44.655 9.99713 44.655 22.3275V159.39C47.9483 157.47 51.7328 156.292 55.8188 156.292C68.1491 156.292 78.1462 166.29 78.1462 178.62C78.1462 190.95 68.1491 200.947 55.8188 200.947C43.4884 200.947 33.4913 190.95 33.4913 178.62V41.557C30.198 43.4772 26.4135 44.655 22.3275 44.655C9.99718 44.655 4.57764e-05 34.6578 4.57764e-05 22.3275C4.57764e-05 9.99713 9.99718 0 22.3275 0Z" fill="#FFE8B6"/>
<path d="M11.1637 22.3274C11.1637 28.4898 16.1651 33.4912 22.3274 33.4912C28.4898 33.4912 33.4912 28.4898 33.4912 22.3274C33.4912 16.1651 28.4898 11.1637 22.3274 11.1637C16.1651 11.1637 11.1637 16.1651 11.1637 22.3274ZM44.6549 178.62C44.6549 184.782 49.6563 189.784 55.8187 189.784C61.9811 189.784 66.9824 184.782 66.9824 178.62C66.9824 172.457 61.9811 167.456 55.8187 167.456C49.6563 167.456 44.6549 172.457 44.6549 178.62Z" fill="#C1694F"/>
<path d="M61.4005 61.4006C58.3137 61.4006 55.8186 58.8999 55.8186 55.8187C55.8186 52.7375 58.3137 50.2368 61.4005 50.2368H161.874C164.955 50.2368 167.456 52.7375 167.456 55.8187C167.456 58.8999 164.955 61.4006 161.874 61.4006H61.4005Z" fill="#C1694F"/>
<path d="M61.4005 83.728C58.3137 83.728 55.8186 81.2329 55.8186 78.1462C55.8186 75.0594 58.3137 72.5643 61.4005 72.5643H161.874C164.955 72.5643 167.456 75.0594 167.456 78.1462C167.456 81.2329 164.955 83.728 161.874 83.728H61.4005Z" fill="#C1694F"/>
<path d="M61.4005 106.056C58.3137 106.056 55.8186 103.56 55.8186 100.474C55.8186 97.3869 58.3137 94.8918 61.4005 94.8918H161.874C164.955 94.8918 167.456 97.3869 167.456 100.474C167.456 103.56 164.955 106.056 161.874 106.056H61.4005Z" fill="#C1694F"/>
<path d="M61.4005 128.383C58.3137 128.383 55.8186 125.888 55.8186 122.801C55.8186 119.714 58.3137 117.219 61.4005 117.219H161.874C164.955 117.219 167.456 119.714 167.456 122.801C167.456 125.888 164.955 128.383 161.874 128.383H61.4005Z" fill="#C1694F"/>
</svg>
