<svg width="200" height="200" viewBox="0 0 200 200" fill="none" xmlns="http://www.w3.org/2000/svg">
<path fill-rule="evenodd" clip-rule="evenodd" d="M49 0C21.938 0 0 21.938 0 49V151C0 178.062 21.938 200 49 200H151C178.062 200 200 178.062 200 151V49C200 21.938 178.062 0 151 0H49ZM152.926 52.3373C155.063 50.2013 155.063 46.7381 152.926 44.602C150.789 42.466 147.325 42.466 145.188 44.602L96.1142 93.6597C90.0569 89.3728 82.767 87.0603 75.2556 87.1256C65.9306 87.2066 57.0106 90.9456 50.4166 97.5374C43.8227 104.129 40.0824 113.046 40.0013 122.368C39.9203 131.69 43.5048 140.671 49.9832 147.376L50.0242 147.418C53.3186 150.756 57.2409 153.409 61.5652 155.225C65.8896 157.041 70.5306 157.984 75.221 158C79.9114 158.016 84.5586 157.104 88.8951 155.316C93.2315 153.529 97.1715 150.902 100.488 147.587C103.805 144.271 106.433 140.333 108.22 135.998C110.008 131.663 110.92 127.017 110.905 122.328C110.889 117.639 109.945 113 108.129 108.677C107.028 106.057 105.619 103.585 103.937 101.31L118.964 86.2881L131.509 98.8294C133.646 100.965 137.111 100.965 139.247 98.8294L158.397 79.6856C160.534 77.5496 160.534 74.0864 158.397 71.9503L145.852 59.409L152.926 52.3373ZM92.7721 105.069C92.7881 105.084 92.8042 105.099 92.8204 105.113C95.044 107.354 96.8163 110.002 98.0399 112.914C99.2977 115.907 99.9508 119.119 99.9616 122.365C99.9725 125.611 99.341 128.827 98.1033 131.828C96.8657 134.829 95.0464 137.556 92.7503 139.852C90.4541 142.147 87.7265 143.966 84.7243 145.203C81.7222 146.44 78.5049 147.071 75.2576 147.061C72.0104 147.05 68.7974 146.397 65.8036 145.139C62.8189 143.886 60.1108 142.056 57.8343 139.755C53.3621 135.116 50.8879 128.907 50.9439 122.463C51 116.01 53.5894 109.836 58.1545 105.273C62.7195 100.709 68.8949 98.1206 75.3507 98.0645C81.8064 98.0084 88.0259 100.489 92.6696 104.973C92.7034 105.006 92.7376 105.038 92.7721 105.069ZM126.702 78.5528L138.114 67.1443L146.791 75.818L135.378 87.2265L126.702 78.5528Z" fill="url(#paint0_linear_103_32)"/>
<defs>
<linearGradient id="paint0_linear_103_32" x1="5" y1="9.5" x2="200" y2="200" gradientUnits="userSpaceOnUse">
<stop stop-color="#F542D1"/>
<stop offset="0.9998" stop-color="#4842F5"/>
<stop offset="0.9999" stop-color="#7F6AFF"/>
<stop offset="1" stop-color="#7F6AFF"/>
</linearGradient>
</defs>
</svg>
