<svg width="200" height="200" viewBox="0 0 200 200" fill="none" xmlns="http://www.w3.org/2000/svg">
<path d="M0 49C0 21.938 21.938 0 49 0H151C178.062 0 200 21.938 200 49V151C200 178.062 178.062 200 151 200H49C21.938 200 0 178.062 0 151V49Z" fill="url(#paint0_linear_112_28)"/>
<path d="M63.4974 55.9823L66.3259 53.1539L60.5128 47.3408L57.6843 50.1692C60.5128 47.3408 60.5114 47.3394 60.5099 47.338L60.5069 47.335L60.5005 47.3286L60.486 47.3142L60.4499 47.279C60.4228 47.2528 60.3895 47.221 60.3502 47.1842C60.2717 47.1108 60.1688 47.0171 60.0428 46.908C59.7919 46.6905 59.4438 46.4066 59.0099 46.0967C58.1579 45.4882 56.8922 44.72 55.3153 44.1945C53.7217 43.6634 51.7323 43.3564 49.5412 43.7944C47.3207 44.2383 45.1758 45.392 43.2266 47.3398L43.2246 47.3418C41.2767 49.291 40.1231 51.4359 39.6792 53.6565C39.2412 55.8475 39.5482 57.837 40.0793 59.4305C40.6048 61.0074 41.3729 62.2731 41.9815 63.1252C42.2913 63.559 42.5753 63.9072 42.7928 64.1581C42.9019 64.284 42.9956 64.387 43.069 64.4654C43.1058 64.5047 43.1376 64.538 43.1638 64.5651L43.199 64.6012L43.2134 64.6158L43.2198 64.6222L43.2227 64.6251C43.2242 64.6266 43.2256 64.628 46.0483 61.8053L43.2256 64.628L43.2276 64.63L49.0448 70.439L49.0679 70.4158C49.0451 70.4392 49.0453 70.4395 49.0456 70.4398L49.0486 70.4428L49.055 70.4492L49.0696 70.4635L49.1056 70.4987C49.1327 70.525 49.166 70.5568 49.2053 70.5935C49.2838 70.6669 49.3867 70.7606 49.5126 70.8697C49.7635 71.0872 50.1116 71.3711 50.5454 71.681C51.3973 72.2895 52.6629 73.0577 54.2395 73.5832C55.8328 74.1143 57.822 74.4215 60.0129 73.9833C62.2333 73.5392 64.3777 72.3852 66.3259 70.437C68.2741 68.4888 69.4281 66.3444 69.8722 64.124C70.3103 61.9331 70.0032 59.9439 69.4721 58.3506C68.9465 56.774 68.1784 55.5084 67.5698 54.6565C67.26 54.2227 66.9761 53.8746 66.7586 53.6237C66.6495 53.4978 66.5558 53.3949 66.4824 53.3164C66.4457 53.2771 66.4139 53.2439 66.3876 53.2167L66.3524 53.1807L66.338 53.1661L66.3317 53.1597L66.3287 53.1567C66.3273 53.1553 66.3259 53.1539 63.4974 55.9823ZM149.831 142.316L152.659 139.487L146.846 133.674L144.018 136.503C146.846 133.674 146.845 133.673 146.843 133.671L146.84 133.668L146.834 133.662L146.819 133.648L146.783 133.612C146.756 133.586 146.723 133.554 146.684 133.518C146.605 133.444 146.502 133.351 146.376 133.241C146.125 133.024 145.777 132.74 145.343 132.43C144.492 131.822 143.226 131.053 141.649 130.528C140.056 129.997 138.067 129.69 135.876 130.128C133.656 130.572 131.511 131.726 129.563 133.674C127.615 135.622 126.461 137.767 126.017 139.987C125.579 142.178 125.886 144.167 126.417 145.76C126.942 147.337 127.711 148.603 128.319 149.455C128.629 149.888 128.913 150.236 129.13 150.487C129.239 150.613 129.333 150.716 129.406 150.795C129.443 150.834 129.475 150.867 129.501 150.894L129.536 150.93L129.551 150.945L129.557 150.951L129.56 150.954C129.562 150.956 129.563 150.957 132.391 148.129L129.563 150.957L135.376 156.77L138.033 154.114C135.376 156.77 135.378 156.772 135.379 156.773L135.382 156.776L135.388 156.782L135.403 156.797L135.439 156.832C135.448 156.841 135.458 156.851 135.469 156.861C135.489 156.88 135.513 156.903 135.539 156.927C135.617 157 135.72 157.094 135.846 157.203C136.097 157.421 136.445 157.704 136.879 158.014C137.731 158.623 138.996 159.391 140.573 159.917C142.166 160.448 144.155 160.755 146.346 160.317C148.567 159.873 150.711 158.719 152.659 156.77C154.607 154.822 155.761 152.678 156.206 150.457C156.644 148.266 156.337 146.277 155.805 144.684C155.28 143.107 154.512 141.842 153.903 140.99C153.593 140.556 153.309 140.208 153.092 139.957C152.983 139.831 152.889 139.728 152.816 139.65C152.779 139.61 152.747 139.577 152.721 139.55L152.686 139.514L152.671 139.499L152.665 139.493L152.662 139.49C152.661 139.489 152.659 139.487 149.831 142.316ZM148.133 67.6086L150.961 70.437L156.774 64.6239L153.946 61.7954C156.774 64.6239 156.776 64.6225 156.777 64.621L156.78 64.6181L156.787 64.6117L156.801 64.5971L156.836 64.561C156.846 64.5509 156.857 64.5399 156.868 64.5281C156.887 64.5083 156.908 64.486 156.931 64.4614C157.004 64.3829 157.098 64.28 157.207 64.154C157.425 63.9032 157.709 63.555 158.018 63.1213C158.627 62.2693 159.395 61.0038 159.921 59.4272C160.452 57.8339 160.759 55.8446 160.321 53.6538C159.877 51.4334 158.723 49.289 156.774 47.3408C154.826 45.3926 152.682 44.2386 150.461 43.7945C148.271 43.3563 146.281 43.6635 144.688 44.1946C143.111 44.7201 141.846 45.4883 140.994 46.0968C140.56 46.4067 140.212 46.6906 139.961 46.908C139.835 47.0172 139.732 47.1109 139.654 47.1843C139.615 47.221 139.581 47.2528 139.554 47.2791L139.518 47.3142L139.504 47.3286L139.497 47.335L139.494 47.338C139.493 47.3394 139.491 47.3407 142.145 49.9946L139.491 47.3408L133.678 53.1539L136.318 55.7938C133.678 53.154 133.677 53.1553 133.675 53.1567L133.672 53.1597L133.666 53.1661L133.652 53.1807L133.616 53.2167C133.59 53.2439 133.558 53.2771 133.522 53.3164C133.448 53.3949 133.355 53.4978 133.245 53.6237C133.028 53.8746 132.744 54.2227 132.434 54.6565C131.826 55.5084 131.058 56.774 130.532 58.3506C130.001 59.9439 129.694 61.9331 130.132 64.124C130.576 66.3444 131.73 68.4888 133.678 70.437C135.626 72.3852 137.771 73.5392 139.991 73.9833C142.182 74.4215 144.171 74.1143 145.765 73.5832C147.341 73.0577 148.607 72.2895 149.459 71.681C149.892 71.3711 150.241 71.0872 150.491 70.8697C150.617 70.7606 150.72 70.6669 150.799 70.5935C150.838 70.5568 150.871 70.525 150.898 70.4987L150.935 70.4635L150.949 70.4492L150.955 70.4428L150.958 70.4398C150.96 70.4384 150.961 70.437 148.133 67.6086ZM47.3449 139.487L50.1733 142.316C47.3449 139.487 47.3435 139.489 47.3421 139.49L47.3391 139.493L47.3327 139.499L47.3184 139.514L47.2832 139.55C47.2654 139.568 47.2451 139.59 47.2225 139.614C47.2116 139.625 47.2003 139.637 47.1884 139.65C47.115 139.728 47.0213 139.831 46.9121 139.957C46.6947 140.208 46.4108 140.556 46.1009 140.99C45.4924 141.842 44.7242 143.107 44.1987 144.684C43.6676 146.277 43.3604 148.266 43.7986 150.457C44.2427 152.678 45.3967 154.822 47.3449 156.77C49.2931 158.719 51.4375 159.873 53.6579 160.317C55.8487 160.755 57.838 160.448 59.4313 159.917C61.0079 159.391 62.2735 158.623 63.1254 158.014C63.5592 157.704 63.9073 157.421 64.1581 157.203C64.2841 157.094 64.387 157 64.4655 156.927C64.5048 156.89 64.538 156.858 64.5651 156.832L64.6012 156.797L64.6158 156.782L64.6222 156.776L64.6251 156.773C64.6266 156.772 64.628 156.77 61.7996 153.942L64.628 156.77L70.4411 150.957L67.7845 148.301C70.4412 150.957 70.4425 150.956 70.4439 150.954L70.4469 150.951L70.4533 150.945L70.4676 150.93L70.5028 150.894C70.5291 150.867 70.5609 150.834 70.5976 150.795C70.671 150.716 70.7647 150.613 70.8739 150.487C71.0913 150.236 71.3752 149.888 71.6851 149.455C72.2936 148.603 73.0618 147.337 73.5873 145.76C74.1184 144.167 74.4256 142.178 73.9874 139.987C73.5433 137.767 72.3893 135.622 70.4411 133.674C68.4929 131.726 66.3485 130.572 64.1281 130.128C61.9373 129.69 59.948 129.997 58.3547 130.528C56.7781 131.053 55.5125 131.822 54.6606 132.43C54.2268 132.74 53.8787 133.024 53.6279 133.241C53.5019 133.351 53.399 133.444 53.3205 133.518C53.2812 133.554 53.248 133.586 53.2209 133.612L53.1848 133.648L53.1702 133.662L53.1638 133.668L53.1609 133.671C53.1594 133.673 53.158 133.674 55.9864 136.503L53.158 133.674L47.3449 139.487ZM87.7778 34.2182C87.7778 34.2202 87.7778 34.2222 91.7778 34.2222H87.7778V42.4444H91.7778C87.7778 42.4444 87.7778 42.4464 87.7778 42.4485L87.7778 42.4527L87.7778 42.4617L87.7779 42.4821L87.7785 42.5325C87.7792 42.5703 87.7802 42.6163 87.782 42.67C87.7856 42.7774 87.7921 42.9165 87.804 43.0827C87.8277 43.4139 87.873 43.8609 87.9607 44.3868C88.1328 45.4196 88.4845 46.8578 89.2278 48.3444C89.979 49.8467 91.1685 51.4707 93.0277 52.7101C94.912 53.9663 97.2445 54.6667 100 54.6667C102.755 54.6667 105.088 53.9663 106.972 52.7101C108.831 51.4707 110.021 49.8467 110.772 48.3444C111.515 46.8578 111.867 45.4196 112.039 44.3868C112.127 43.8609 112.172 43.4139 112.196 43.0827C112.208 42.9165 112.214 42.7774 112.218 42.67C112.22 42.6163 112.221 42.5703 112.221 42.5325L112.222 42.4821L112.222 42.4617L112.222 42.4527L112.222 42.4485C112.222 42.4464 112.222 42.4444 108.222 42.4444H112.222V34.2222H108.222C112.222 34.2222 112.222 34.2202 112.222 34.2182L112.222 34.214L112.222 34.205L112.222 34.1845L112.221 34.1341C112.221 34.0964 112.22 34.0504 112.218 33.9966C112.214 33.8892 112.208 33.7502 112.196 33.5839C112.172 33.2528 112.127 32.8058 112.039 32.2799C111.867 31.2471 111.515 29.8089 110.772 28.3223C110.021 26.82 108.831 25.196 106.972 23.9565C105.088 22.7004 102.755 22 100 22C97.2445 22 94.912 22.7004 93.0277 23.9565C91.1685 25.196 89.979 26.82 89.2278 28.3223C88.4845 29.8089 88.1328 31.2471 87.9607 32.2799C87.873 32.8058 87.8277 33.2528 87.804 33.5839C87.7921 33.7502 87.7856 33.8892 87.782 33.9966C87.7802 34.0504 87.7792 34.0964 87.7785 34.1341L87.7779 34.1845L87.7778 34.205L87.7778 34.214L87.7778 34.2182ZM165.782 87.7778C165.78 87.7778 165.778 87.7778 165.778 91.7778V87.7778H157.556V91.7778C157.556 87.7778 157.554 87.7778 157.552 87.7778L157.547 87.7778L157.538 87.7778L157.518 87.7779L157.467 87.7785C157.449 87.7788 157.429 87.7793 157.407 87.7798C157.383 87.7804 157.358 87.7811 157.33 87.782C157.223 87.7856 157.084 87.7921 156.917 87.804C156.586 87.8277 156.139 87.873 155.613 87.9607C154.58 88.1328 153.142 88.4845 151.656 89.2278C150.153 89.979 148.529 91.1685 147.29 93.0277C146.034 94.912 145.333 97.2445 145.333 100C145.333 102.755 146.034 105.088 147.29 106.972C148.529 108.831 150.153 110.021 151.656 110.772C153.142 111.515 154.58 111.867 155.613 112.039C156.139 112.127 156.586 112.172 156.917 112.196C157.084 112.208 157.223 112.214 157.33 112.218C157.384 112.22 157.43 112.221 157.467 112.221L157.518 112.222L157.538 112.222L157.547 112.222L157.552 112.222C157.554 112.222 157.556 112.222 157.556 108.222V112.222H165.778V108.222C165.778 112.222 165.78 112.222 165.782 112.222L165.786 112.222L165.795 112.222L165.815 112.222L165.866 112.221C165.904 112.221 165.95 112.22 166.003 112.218C166.111 112.214 166.25 112.208 166.416 112.196C166.747 112.172 167.194 112.127 167.72 112.039C168.753 111.867 170.191 111.515 171.678 110.772C173.18 110.021 174.804 108.831 176.043 106.972C177.3 105.088 178 102.755 178 100C178 97.2445 177.3 94.912 176.043 93.0277C174.804 91.1685 173.18 89.979 171.678 89.2278C170.191 88.4845 168.753 88.1328 167.72 87.9607C167.194 87.873 166.747 87.8277 166.416 87.804C166.25 87.7921 166.111 87.7856 166.003 87.782C165.976 87.7811 165.95 87.7804 165.927 87.7798C165.905 87.7793 165.884 87.7788 165.866 87.7785L165.815 87.7779L165.795 87.7778L165.786 87.7778L165.782 87.7778ZM42.4485 87.7778C42.4464 87.7778 42.4444 87.7778 42.4444 91.7778V87.7778H34.2222V91.7778C34.2222 87.7778 34.2202 87.7778 34.2182 87.7778L34.214 87.7778L34.205 87.7778L34.1845 87.7779L34.1341 87.7785C34.0964 87.7792 34.0504 87.7802 33.9966 87.782C33.8892 87.7856 33.7502 87.7921 33.5839 87.804C33.2528 87.8277 32.8058 87.873 32.2799 87.9607C31.2471 88.1328 29.8089 88.4845 28.3223 89.2278C26.82 89.979 25.196 91.1685 23.9565 93.0277C22.7004 94.912 22 97.2445 22 100C22 102.755 22.7004 105.088 23.9565 106.972C25.196 108.831 26.82 110.021 28.3223 110.772C29.8089 111.515 31.2471 111.867 32.2799 112.039C32.8058 112.127 33.2528 112.172 33.5839 112.196C33.7502 112.208 33.8892 112.214 33.9966 112.218C34.0504 112.22 34.0964 112.221 34.1341 112.221L34.1845 112.222L34.205 112.222L34.214 112.222L34.2182 112.222C34.2202 112.222 34.2222 112.222 34.2222 108.222V112.222H42.4444V108.222C42.4444 112.222 42.4464 112.222 42.4485 112.222L42.4527 112.222L42.4617 112.222L42.4821 112.222L42.5325 112.221C42.5703 112.221 42.6163 112.22 42.67 112.218C42.7774 112.214 42.9165 112.208 43.0827 112.196C43.4139 112.172 43.8609 112.127 44.3868 112.039C45.4196 111.867 46.8578 111.515 48.3444 110.772C49.8467 110.021 51.4707 108.831 52.7101 106.972C53.9663 105.088 54.6667 102.755 54.6667 100C54.6667 97.2445 53.9663 94.912 52.7101 93.0277C51.4707 91.1685 49.8467 89.979 48.3444 89.2278C46.8578 88.4845 45.4196 88.1328 44.3868 87.9607C43.8609 87.873 43.4139 87.8277 43.0827 87.804C42.9165 87.7921 42.7774 87.7856 42.67 87.782C42.6163 87.7802 42.5703 87.7792 42.5325 87.7785L42.4821 87.7779L42.4617 87.7778L42.4527 87.7778L42.4485 87.7778ZM87.7778 157.552C87.7778 157.554 87.7778 157.556 91.7778 157.556H87.7778V165.778H91.7778C87.7778 165.778 87.7778 165.78 87.7778 165.782L87.7778 165.786L87.7778 165.795L87.7779 165.815L87.7785 165.866C87.7792 165.904 87.7802 165.95 87.782 166.003C87.7856 166.111 87.7921 166.25 87.804 166.416C87.8277 166.747 87.873 167.194 87.9607 167.72C88.1328 168.753 88.4845 170.191 89.2278 171.678C89.979 173.18 91.1685 174.804 93.0277 176.043C94.912 177.3 97.2445 178 100 178C102.755 178 105.088 177.3 106.972 176.043C108.831 174.804 110.021 173.18 110.772 171.678C111.515 170.191 111.867 168.753 112.039 167.72C112.127 167.194 112.172 166.747 112.196 166.416C112.208 166.25 112.214 166.111 112.218 166.003C112.22 165.95 112.221 165.904 112.221 165.866L112.222 165.815L112.222 165.795L112.222 165.786L112.222 165.782C112.222 165.78 112.222 165.778 108.222 165.778H112.222V157.556H108.222C112.222 157.556 112.222 157.554 112.222 157.552L112.222 157.547L112.222 157.538L112.222 157.518L112.221 157.467C112.221 157.43 112.22 157.384 112.218 157.33C112.214 157.223 112.208 157.084 112.196 156.917C112.172 156.586 112.127 156.139 112.039 155.613C111.867 154.58 111.515 153.142 110.772 151.656C110.021 150.153 108.831 148.529 106.972 147.29C105.088 146.034 102.755 145.333 100 145.333C97.2445 145.333 94.912 146.034 93.0277 147.29C91.1685 148.529 89.979 150.153 89.2278 151.656C88.4845 153.142 88.1328 154.58 87.9607 155.613C87.873 156.139 87.8277 156.586 87.804 156.917C87.7921 157.084 87.7856 157.223 87.782 157.33C87.7802 157.384 87.7792 157.43 87.7785 157.467L87.7779 157.518L87.7778 157.538L87.7778 157.547L87.7778 157.552Z" fill="#FFAC33" stroke="white" stroke-width="8"/>
<path d="M100 145.111C124.914 145.111 145.111 124.914 145.111 99.9999C145.111 75.0857 124.914 54.8888 100 54.8888C75.0858 54.8888 54.8889 75.0857 54.8889 99.9999C54.8889 124.914 75.0858 145.111 100 145.111Z" fill="#FFAC33" stroke="white" stroke-width="8"/>
<defs>
<linearGradient id="paint0_linear_112_28" x1="5" y1="9.5" x2="200" y2="200" gradientUnits="userSpaceOnUse">
<stop stop-color="#749FCF"/>
<stop offset="0.979167" stop-color="#7AA5D1"/>
</linearGradient>
</defs>
</svg>
