<svg viewBox="0 0 233 102" xmlns="http://www.w3.org/2000/svg" aria-labelledby="footer-logo" class="footer__contact-logo logo">
    <title id="footer-logo">Triple Logo</title>
    <path fill-rule="evenodd" clip-rule="evenodd" d="M73.7883 58.1616L77.8482 64.144C78.0485 64.4371 78.3747 64.594 78.703 64.594C78.9032 64.594 79.1035 64.5383 79.281 64.4165C79.7517 64.0985 79.8777 63.4585 79.5535 62.9858L75.4712 56.9703L75.4224 57.0049L73.7883 58.1616ZM103.215 37.3373V63.5618C103.215 64.1357 103.677 64.594 104.247 64.594C104.819 64.594 105.277 64.1357 105.277 63.5618V36.368C105.277 36.2164 105.245 36.0723 105.186 35.9425L103.215 37.3373ZM231.031 62.5274H213.929V50.9909H226.619C227.189 50.9909 227.65 50.5326 227.65 49.9587C227.65 49.3951 227.189 48.9305 226.619 48.9305H213.929V37.394H231.031C231.599 37.394 232.061 36.9357 232.061 36.3618C232.061 35.794 231.599 35.3357 231.031 35.3357H212.896C212.327 35.3357 211.866 35.794 211.866 36.3618V63.5597C211.866 64.1295 212.327 64.592 212.896 64.592H231.031C231.599 64.592 232.061 64.1295 232.061 63.5597C232.061 62.992 231.599 62.5274 231.031 62.5274ZM190.313 62.5295H175.308V36.3638C175.308 35.7961 174.845 35.3378 174.274 35.3378C173.704 35.3378 173.243 35.7961 173.243 36.3638V63.5618C173.243 64.1316 173.704 64.594 174.274 64.594H190.313C190.885 64.594 191.345 64.1316 191.345 63.5618C191.345 62.994 190.885 62.5295 190.313 62.5295ZM143.63 35.3378H130.877C130.306 35.3378 129.845 35.8002 129.845 36.368V63.5618C129.845 64.1357 130.306 64.594 130.877 64.594C131.445 64.594 131.908 64.1357 131.908 63.5618V53.0616H143.63C148.519 53.0616 152.495 49.0874 152.495 44.1987C152.495 39.312 148.519 35.3378 143.63 35.3378ZM143.63 50.9971H131.908V37.4002H143.63C147.383 37.4002 150.43 40.4495 150.43 44.1987C150.43 47.9499 147.383 50.9971 143.63 50.9971Z" fill="#fff" class="logo__text"></path>
    <path fill-rule="evenodd" clip-rule="evenodd" d="M66.8258 63.0902L64.6106 64.6581H54.1806V62.2839L57.6015 61.3549V38.4904L54.1806 37.613V35.2388H69.6129C75.5483 35.2388 78.6451 38.1291 78.6451 43.2904C78.6451 48.9678 71.6774 51.0323 71.6774 51.0323L75.414 57.0109L71.4998 59.7817L71.0681 60.0873L66.8258 51.8065H62.9548V61.3549L66.8258 62.2839V63.0902ZM106.042 35.3368L101.298 38.694V38.511L97.2258 37.7162V35.3368H104.452H106.042ZM67.2903 48.4517H63.1612V38.1291H66.7741C70.5233 38.1291 72.9677 39.5412 72.9677 43.2904C72.9677 47.0416 71.0394 48.4517 67.2903 48.4517ZM11.5483 44.4981V35.3379L36.9574 35.3368V44.4981H34.3561L33.0606 38.3923H26.8877V61.3136L31.1922 62.2891V64.653H24.4516H17.3135V62.2891L21.6129 61.3136V38.3923H15.4038L14.129 44.4981H11.5483Z" fill="#fff" class="logo__text"></path>
    <path fill-rule="evenodd" clip-rule="evenodd" d="M18.7432 97.1164L2.35918 3.2738L108.944 32.9615L109.27 33.0524L75.4224 57.0049L71.4998 59.7817L62.9073 65.8637L18.7432 97.1164ZM118.998 31.1283L2.11144 0.333934C0.949115 -0.0686463 0.127437 0.600257 0.288469 1.82245L17.1576 99.7383C17.3187 100.961 18.2828 101.396 19.3047 100.702L74.7452 63.215L76.4547 62.0588L103.217 43.9634L105.279 42.5677L119.258 33.1164C120.28 32.4268 120.16 31.5329 118.998 31.1283Z" fill="#FF4F68"></path>
</svg>